<svg xmlns="http://www.w3.org/2000/svg" viewBox="0 0 700 700">

  <style>
    .cls-1 { fill: #14a0ff; }
    .cls-2 { fill: #002e5b; }
  </style>

  <g transform="matrix(4.4731707,0,0,4.4731707,64.701173,287.57665)">

    <path class="cls-1" d="M73.8,8.37C74.94,3.79,72.16,0,65.35,0H50.59l-5.53,22.4,3.21,5.51h10.5c6.88,0,12.21-3.21,13.58-8.79,0.69-2.86-0.11-4.86-1.91-5.86V13.19A7.78,7.78,0,0,0,73.8,8.37ZM64.8,18.94c-0.28,1.17-1.07,2.37-4.34,2.37H53.76l1.17-4.8h6.67c3.23-0.01,3.47,1.22,3.16,2.43ZM66.14,8.52c-0.24,0.9-0.93,2-3.75,2H56.39l1-3.9h6c2.85-0.02,2.99,0.9,2.75,1.9Z"/>

    <polygon class="cls-1" points="78.8,0 71.92,27.9 96.5,27.9 98.11,21.3 82.1,21.3 83.09,17.1 96.53,17.1 98.06,10.5 84.71,10.5 85.75,6.6 98.97,6.6 100.5,0"/>

    <polygon class="cls-1" points="127.56,0 102.38,0 100.84,6.6 108.87,6.6 103.6,27.9 112.03,27.9 117.31,6.6 125.91,6.6"/>

    <path class="cls-2" d="M8.82,27.9H0.32L4,13,4.85,10.75,2.6,13,0.1,15.53,0,8.09,8.82,0h6.87z"/>

    <path class="cls-2" d="M39.51,16.34l-2.71-4.59L49.95,0H37.7l-5,4.8v0L15.74,20.35,7.6,27.9h11.59l8.71-7.77,2.93,5c1,1.26,2.41,2.79,8.39,2.79h7l-6.7-11.59z"/>

    <path class="cls-2" d="M31.76,3.26V3.2A7.69,7.69,0,0,0,25.12,0h-9.05l6.75,11.48z"/>

  </g>

</svg>